<?xml version="1.0" standalone="no"?>
<!DOCTYPE svg PUBLIC "-//W3C//DTD SVG 20010904//EN"
 "http://www.w3.org/TR/2001/REC-SVG-20010904/DTD/svg10.dtd">
<svg version="1.0" xmlns="http://www.w3.org/2000/svg"
 width="86.000000pt" height="103.000000pt" viewBox="0 0 86.000000 103.000000"
 preserveAspectRatio="xMidYMid meet">

<g transform="translate(0.000000,103.000000) scale(0.100000,-0.100000)"
fill="#000000" stroke="none">
<path d="M0 515 l0 -515 430 0 430 0 0 515 0 515 -430 0 -430 0 0 -515z m380
370 l0 -35 -70 0 -70 0 0 -95 0 -95 55 0 c54 0 55 0 55 -30 0 -30 -1 -30 -55
-30 l-55 0 0 -105 0 -105 70 0 70 0 0 -30 0 -30 -115 0 -115 0 0 288 c0 159 3
292 7 295 3 4 55 7 115 7 l108 0 0 -35z m234 26 c6 -9 126 -558 126 -573 0 -5
-17 -8 -39 -8 l-39 0 -13 73 -14 72 -57 3 -56 3 -12 -58 c-19 -95 -17 -93 -60
-93 -31 0 -37 3 -34 18 2 9 29 136 60 282 30 146 57 271 59 278 5 14 71 17 79
3z m-348 -689 c6 -4 17 -18 24 -31 26 -51 -57 -105 -101 -65 -23 21 -25 61 -2
86 16 18 59 24 79 10z m200 0 c6 -4 17 -18 24 -31 26 -51 -57 -105 -101 -65
-23 21 -25 61 -2 86 16 18 59 24 79 10z m200 0 c33 -22 34 -83 1 -104 -38 -24
-97 6 -97 50 0 47 58 80 96 54z"/>
<path d="M556 672 c-10 -59 -21 -113 -23 -119 -4 -9 8 -13 41 -13 30 0 46 4
46 13 0 15 -40 220 -43 224 -2 1 -11 -46 -21 -105z"/>
</g>
</svg>
